<?xml version="1.0" encoding="UTF-8" standalone="no"?>
<!DOCTYPE svg PUBLIC "-//W3C//DTD SVG 1.1//EN"
 "http://www.w3.org/Graphics/SVG/1.1/DTD/svg11.dtd">
<!-- Generated by graphviz version 2.40.1 (20161225.0304)
 -->
<!-- Title: largeRelationshipsDiagram Pages: 1 -->
<svg width="680pt" height="790pt"
 viewBox="0.00 0.00 680.00 790.00" xmlns="http://www.w3.org/2000/svg" xmlns:xlink="http://www.w3.org/1999/xlink">
<g id="graph0" class="graph" transform="scale(1 1) rotate(0) translate(4 786)">
<title>largeRelationshipsDiagram</title>
<polygon fill="#ffffff" stroke="transparent" points="-4,4 -4,-786 676,-786 676,4 -4,4"/>
<!-- feedback -->
<g id="node1" class="node">
<title>feedback</title>
<g id="a_node1"><a xlink:href="../../tables/feedback.html" xlink:title="feedback" target="_top">
<polygon fill="#ffffff" stroke="transparent" points="517,-314 517,-442 664,-442 664,-314 517,-314"/>
<polygon fill="#f5f5f5" stroke="transparent" points="517.5,-420 517.5,-442 664.5,-442 664.5,-420 517.5,-420"/>
<polygon fill="none" stroke="#000000" points="517.5,-420 517.5,-442 664.5,-442 664.5,-420 517.5,-420"/>
<text text-anchor="start" x="522.5" y="-429.2" font-family="Helvetica,sans-Serif" font-weight="bold" font-size="11.00" fill="#000000">feedback</text>
<text text-anchor="start" x="629.5" y="-428.2" font-family="Helvetica,sans-Serif" font-size="11.00" fill="#000000">[table]</text>
<polygon fill="none" stroke="#000000" points="517.5,-398 517.5,-420 664.5,-420 664.5,-398 517.5,-398"/>
<image xlink:href="../../images/primaryKeys.png" width="11px" height="12px" preserveAspectRatio="xMinYMin meet" x="522.5" y="-415"/>
<text text-anchor="start" x="537.5" y="-406.2" font-family="Helvetica,sans-Serif" font-size="11.00" fill="#000000">task_id</text>
<polygon fill="none" stroke="#000000" points="517.5,-376 517.5,-398 664.5,-398 664.5,-376 517.5,-376"/>
<image xlink:href="../../images/primaryKeys.png" width="11px" height="12px" preserveAspectRatio="xMinYMin meet" x="522.5" y="-393"/>
<text text-anchor="start" x="537.5" y="-384.2" font-family="Helvetica,sans-Serif" font-size="11.00" fill="#000000">feedback_sender_id</text>
<polygon fill="none" stroke="#000000" points="517.5,-354 517.5,-376 664.5,-376 664.5,-354 517.5,-354"/>
<image xlink:href="../../images/primaryKeys.png" width="11px" height="12px" preserveAspectRatio="xMinYMin meet" x="522.5" y="-371"/>
<text text-anchor="start" x="537.5" y="-362.2" font-family="Helvetica,sans-Serif" font-size="11.00" fill="#000000">feedback_recipient_id</text>
<polygon fill="none" stroke="#000000" points="517.5,-332 517.5,-354 664.5,-354 664.5,-332 517.5,-332"/>
<text text-anchor="start" x="537.5" y="-340.2" font-family="Helvetica,sans-Serif" font-size="11.00" fill="#000000">text</text>
<polygon fill="#ffffff" stroke="transparent" points="517.5,-314 517.5,-332 575.5,-332 575.5,-314 517.5,-314"/>
<polygon fill="none" stroke="#000000" points="517.5,-314 517.5,-332 575.5,-332 575.5,-314 517.5,-314"/>
<text text-anchor="start" x="520.5" y="-320.2" font-family="Helvetica,sans-Serif" font-size="11.00" fill="#000000">&lt; 3</text>
<polygon fill="#ffffff" stroke="transparent" points="575.5,-314 575.5,-332 632.5,-332 632.5,-314 575.5,-314"/>
<polygon fill="none" stroke="#000000" points="575.5,-314 575.5,-332 632.5,-332 632.5,-314 575.5,-314"/>
<text text-anchor="start" x="596.5" y="-320.2" font-family="Helvetica,sans-Serif" font-size="11.00" fill="#000000">0 rows</text>
<polygon fill="#ffffff" stroke="transparent" points="632.5,-314 632.5,-332 664.5,-332 664.5,-314 632.5,-314"/>
<polygon fill="none" stroke="#000000" points="632.5,-314 632.5,-332 664.5,-332 664.5,-314 632.5,-314"/>
<text text-anchor="start" x="654.5" y="-320.2" font-family="Helvetica,sans-Serif" font-size="11.00" fill="#000000"> &#160;</text>
</a>
</g>
</g>
<!-- task -->
<g id="node7" class="node">
<title>task</title>
<g id="a_node7"><a xlink:href="../../tables/task.html" xlink:title="task" target="_top">
<polygon fill="#ffffff" stroke="transparent" points="352.5,-414 352.5,-542 467.5,-542 467.5,-414 352.5,-414"/>
<polygon fill="#f5f5f5" stroke="transparent" points="353,-520 353,-542 468,-542 468,-520 353,-520"/>
<polygon fill="none" stroke="#000000" points="353,-520 353,-542 468,-542 468,-520 353,-520"/>
<text text-anchor="start" x="358" y="-529.2" font-family="Helvetica,sans-Serif" font-weight="bold" font-size="11.00" fill="#000000">task</text>
<text text-anchor="start" x="433" y="-528.2" font-family="Helvetica,sans-Serif" font-size="11.00" fill="#000000">[table]</text>
<polygon fill="none" stroke="#000000" points="353,-498 353,-520 468,-520 468,-498 353,-498"/>
<image xlink:href="../../images/primaryKeys.png" width="11px" height="12px" preserveAspectRatio="xMinYMin meet" x="358" y="-515"/>
<text text-anchor="start" x="373" y="-506.2" font-family="Helvetica,sans-Serif" font-size="11.00" fill="#000000">id</text>
<polygon fill="none" stroke="#000000" points="353,-476 353,-498 468,-498 468,-476 353,-476"/>
<image xlink:href="../../images/foreignKeys.png" width="11px" height="12px" preserveAspectRatio="xMinYMin meet" x="358" y="-493"/>
<text text-anchor="start" x="373" y="-484.2" font-family="Helvetica,sans-Serif" font-size="11.00" fill="#000000">order_id</text>
<polygon fill="none" stroke="#000000" points="353,-454 353,-476 468,-476 468,-454 353,-454"/>
<image xlink:href="../../images/foreignKeys.png" width="11px" height="12px" preserveAspectRatio="xMinYMin meet" x="358" y="-471"/>
<text text-anchor="start" x="373" y="-462.2" font-family="Helvetica,sans-Serif" font-size="11.00" fill="#000000">contractor_id</text>
<polygon fill="none" stroke="#000000" points="353,-432 353,-454 468,-454 468,-432 353,-432"/>
<text text-anchor="start" x="373" y="-440.2" font-family="Helvetica,sans-Serif" font-size="11.00" fill="#000000">contractor_price</text>
<polygon fill="#ffffff" stroke="transparent" points="353,-414 353,-432 391,-432 391,-414 353,-414"/>
<polygon fill="none" stroke="#000000" points="353,-414 353,-432 391,-432 391,-414 353,-414"/>
<text text-anchor="start" x="356" y="-420.2" font-family="Helvetica,sans-Serif" font-size="11.00" fill="#000000">&lt; 2</text>
<polygon fill="#ffffff" stroke="transparent" points="391,-414 391,-432 438,-432 438,-414 391,-414"/>
<polygon fill="none" stroke="#000000" points="391,-414 391,-432 438,-432 438,-414 391,-414"/>
<text text-anchor="start" x="402" y="-420.2" font-family="Helvetica,sans-Serif" font-size="11.00" fill="#000000">0 rows</text>
<polygon fill="#ffffff" stroke="transparent" points="438,-414 438,-432 468,-432 468,-414 438,-414"/>
<polygon fill="none" stroke="#000000" points="438,-414 438,-432 468,-432 468,-414 438,-414"/>
<text text-anchor="start" x="449" y="-420.2" font-family="Helvetica,sans-Serif" font-size="11.00" fill="#000000">3 &gt;</text>
</a>
</g>
</g>
<!-- feedback&#45;&gt;task -->
<g id="edge3" class="edge">
<title>feedback:w&#45;&gt;task:e</title>
<path fill="none" stroke="#000000" d="M503.499,-413.044C478.4854,-431.7524 511.5862,-509 468,-509"/>
<polygon fill="#000000" stroke="#000000" points="509.8142,-411.22 518.499,-412.4586 513.6571,-410.11 517.5,-409 517.5,-409 517.5,-409 513.6571,-410.11 516.501,-405.5414 509.8142,-411.22 509.8142,-411.22"/>
<ellipse fill="none" stroke="#000000" cx="506.7398" cy="-412.108" rx="3.2" ry="3.2"/>
</g>
<!-- user -->
<g id="node9" class="node">
<title>user</title>
<g id="a_node9"><a xlink:href="../../tables/user.html" xlink:title="user" target="_top">
<polygon fill="#ffffff" stroke="transparent" points="8,-247 8,-463 124,-463 124,-247 8,-247"/>
<polygon fill="#f5f5f5" stroke="transparent" points="8,-441 8,-463 124,-463 124,-441 8,-441"/>
<polygon fill="none" stroke="#000000" points="8,-441 8,-463 124,-463 124,-441 8,-441"/>
<text text-anchor="start" x="13" y="-450.2" font-family="Helvetica,sans-Serif" font-weight="bold" font-size="11.00" fill="#000000">user</text>
<text text-anchor="start" x="89" y="-449.2" font-family="Helvetica,sans-Serif" font-size="11.00" fill="#000000">[table]</text>
<polygon fill="none" stroke="#000000" points="8,-419 8,-441 124,-441 124,-419 8,-419"/>
<image xlink:href="../../images/primaryKeys.png" width="11px" height="12px" preserveAspectRatio="xMinYMin meet" x="13" y="-436"/>
<text text-anchor="start" x="28" y="-427.2" font-family="Helvetica,sans-Serif" font-size="11.00" fill="#000000">id</text>
<polygon fill="none" stroke="#000000" points="8,-397 8,-419 124,-419 124,-397 8,-397"/>
<text text-anchor="start" x="28" y="-405.2" font-family="Helvetica,sans-Serif" font-size="11.00" fill="#000000">name</text>
<polygon fill="none" stroke="#000000" points="8,-375 8,-397 124,-397 124,-375 8,-375"/>
<text text-anchor="start" x="28" y="-383.2" font-family="Helvetica,sans-Serif" font-size="11.00" fill="#000000">phone</text>
<polygon fill="none" stroke="#000000" points="8,-353 8,-375 124,-375 124,-353 8,-353"/>
<text text-anchor="start" x="28" y="-361.2" font-family="Helvetica,sans-Serif" font-size="11.00" fill="#000000">email</text>
<polygon fill="none" stroke="#000000" points="8,-331 8,-353 124,-353 124,-331 8,-331"/>
<text text-anchor="start" x="28" y="-339.2" font-family="Helvetica,sans-Serif" font-size="11.00" fill="#000000">email_confirmed</text>
<polygon fill="none" stroke="#000000" points="8,-309 8,-331 124,-331 124,-309 8,-309"/>
<text text-anchor="start" x="28" y="-317.2" font-family="Helvetica,sans-Serif" font-size="11.00" fill="#000000">password_hash</text>
<polygon fill="none" stroke="#000000" points="8,-287 8,-309 124,-309 124,-287 8,-287"/>
<text text-anchor="start" x="28" y="-295.2" font-family="Helvetica,sans-Serif" font-size="11.00" fill="#000000">date_of_birth</text>
<polygon fill="none" stroke="#000000" points="8,-265 8,-287 124,-287 124,-265 8,-265"/>
<text text-anchor="start" x="28" y="-273.2" font-family="Helvetica,sans-Serif" font-size="11.00" fill="#000000">gender</text>
<polygon fill="#ffffff" stroke="transparent" points="8,-247 8,-265 42,-265 42,-247 8,-247"/>
<polygon fill="none" stroke="#000000" points="8,-247 8,-265 42,-265 42,-247 8,-247"/>
<text text-anchor="start" x="11" y="-253.2" font-family="Helvetica,sans-Serif" font-size="11.00" fill="#000000"> &#160;</text>
<polygon fill="#ffffff" stroke="transparent" points="42,-247 42,-265 91,-265 91,-247 42,-247"/>
<polygon fill="none" stroke="#000000" points="42,-247 42,-265 91,-265 91,-247 42,-247"/>
<text text-anchor="start" x="55" y="-253.2" font-family="Helvetica,sans-Serif" font-size="11.00" fill="#000000">0 rows</text>
<polygon fill="#ffffff" stroke="transparent" points="91,-247 91,-265 124,-265 124,-247 91,-247"/>
<polygon fill="none" stroke="#000000" points="91,-247 91,-265 124,-265 124,-247 91,-247"/>
<text text-anchor="start" x="105" y="-253.2" font-family="Helvetica,sans-Serif" font-size="11.00" fill="#000000">7 &gt;</text>
</a>
</g>
</g>
<!-- feedback&#45;&gt;user -->
<g id="edge1" class="edge">
<title>feedback:w&#45;&gt;user:e</title>
<path fill="none" stroke="#000000" d="M503.0906,-364.8442C357.1455,-361.6802 300.8976,-312.1182 165,-380 139.2908,-392.8419 152.7381,-430 124,-430"/>
<polygon fill="#000000" stroke="#000000" points="509.5005,-364.9134 517.461,-368.5998 513.5002,-364.9567 517.5,-365 517.5,-365 517.5,-365 513.5002,-364.9567 517.539,-361.4002 509.5005,-364.9134 509.5005,-364.9134"/>
<ellipse fill="none" stroke="#000000" cx="506.3007" cy="-364.8788" rx="3.2" ry="3.2"/>
</g>
<!-- feedback&#45;&gt;user -->
<g id="edge2" class="edge">
<title>feedback:w&#45;&gt;user:e</title>
<path fill="none" stroke="#000000" d="M503.0691,-387.0559C357.4062,-388.2046 316.5694,-406.8671 165,-425 146.7728,-427.1806 142.3572,-430 124,-430"/>
<polygon fill="#000000" stroke="#000000" points="509.5001,-387.031 517.514,-390.6 513.5,-387.0155 517.5,-387 517.5,-387 517.5,-387 513.5,-387.0155 517.486,-383.4 509.5001,-387.031 509.5001,-387.031"/>
<ellipse fill="none" stroke="#000000" cx="506.3001" cy="-387.0435" rx="3.2" ry="3.2"/>
</g>
<!-- language -->
<g id="node2" class="node">
<title>language</title>
<g id="a_node2"><a xlink:href="../../tables/language.html" xlink:title="language" target="_top">
<polygon fill="#ffffff" stroke="transparent" points="19.5,-142 19.5,-226 112.5,-226 112.5,-142 19.5,-142"/>
<polygon fill="#f5f5f5" stroke="transparent" points="20,-204 20,-226 113,-226 113,-204 20,-204"/>
<polygon fill="none" stroke="#000000" points="20,-204 20,-226 113,-226 113,-204 20,-204"/>
<text text-anchor="start" x="25" y="-213.2" font-family="Helvetica,sans-Serif" font-weight="bold" font-size="11.00" fill="#000000">language</text>
<text text-anchor="start" x="78" y="-212.2" font-family="Helvetica,sans-Serif" font-size="11.00" fill="#000000">[table]</text>
<polygon fill="none" stroke="#000000" points="20,-182 20,-204 113,-204 113,-182 20,-182"/>
<image xlink:href="../../images/primaryKeys.png" width="11px" height="12px" preserveAspectRatio="xMinYMin meet" x="25" y="-199"/>
<text text-anchor="start" x="50" y="-190.2" font-family="Helvetica,sans-Serif" font-size="11.00" fill="#000000">id</text>
<polygon fill="none" stroke="#000000" points="20,-160 20,-182 113,-182 113,-160 20,-160"/>
<text text-anchor="start" x="50" y="-168.2" font-family="Helvetica,sans-Serif" font-size="11.00" fill="#000000">name</text>
<polygon fill="#ffffff" stroke="transparent" points="20,-142 20,-160 42,-160 42,-142 20,-142"/>
<polygon fill="none" stroke="#000000" points="20,-142 20,-160 42,-160 42,-142 20,-142"/>
<text text-anchor="start" x="23" y="-148.2" font-family="Helvetica,sans-Serif" font-size="11.00" fill="#000000"> &#160;</text>
<polygon fill="#ffffff" stroke="transparent" points="42,-142 42,-160 86,-160 86,-142 42,-142"/>
<polygon fill="none" stroke="#000000" points="42,-142 42,-160 86,-160 86,-142 42,-142"/>
<text text-anchor="start" x="50" y="-148.2" font-family="Helvetica,sans-Serif" font-size="11.00" fill="#000000">0 rows</text>
<polygon fill="#ffffff" stroke="transparent" points="86,-142 86,-160 113,-160 113,-142 86,-142"/>
<polygon fill="none" stroke="#000000" points="86,-142 86,-160 113,-160 113,-142 86,-142"/>
<text text-anchor="start" x="94" y="-148.2" font-family="Helvetica,sans-Serif" font-size="11.00" fill="#000000">1 &gt;</text>
</a>
</g>
</g>
<!-- message -->
<g id="node3" class="node">
<title>message</title>
<g id="a_node3"><a xlink:href="../../tables/message.html" xlink:title="message" target="_top">
<polygon fill="#ffffff" stroke="transparent" points="545,-628 545,-778 636,-778 636,-628 545,-628"/>
<polygon fill="#f5f5f5" stroke="transparent" points="545.5,-756 545.5,-778 636.5,-778 636.5,-756 545.5,-756"/>
<polygon fill="none" stroke="#000000" points="545.5,-756 545.5,-778 636.5,-778 636.5,-756 545.5,-756"/>
<text text-anchor="start" x="550.5" y="-765.2" font-family="Helvetica,sans-Serif" font-weight="bold" font-size="11.00" fill="#000000">message</text>
<text text-anchor="start" x="601.5" y="-764.2" font-family="Helvetica,sans-Serif" font-size="11.00" fill="#000000">[table]</text>
<polygon fill="none" stroke="#000000" points="545.5,-734 545.5,-756 636.5,-756 636.5,-734 545.5,-734"/>
<image xlink:href="../../images/primaryKeys.png" width="11px" height="12px" preserveAspectRatio="xMinYMin meet" x="550.5" y="-751"/>
<text text-anchor="start" x="572.5" y="-742.2" font-family="Helvetica,sans-Serif" font-size="11.00" fill="#000000">id</text>
<polygon fill="none" stroke="#000000" points="545.5,-712 545.5,-734 636.5,-734 636.5,-712 545.5,-712"/>
<image xlink:href="../../images/foreignKeys.png" width="11px" height="12px" preserveAspectRatio="xMinYMin meet" x="550.5" y="-729"/>
<text text-anchor="start" x="572.5" y="-720.2" font-family="Helvetica,sans-Serif" font-size="11.00" fill="#000000">task_id</text>
<polygon fill="none" stroke="#000000" points="545.5,-690 545.5,-712 636.5,-712 636.5,-690 545.5,-690"/>
<image xlink:href="../../images/foreignKeys.png" width="11px" height="12px" preserveAspectRatio="xMinYMin meet" x="550.5" y="-707"/>
<text text-anchor="start" x="572.5" y="-698.2" font-family="Helvetica,sans-Serif" font-size="11.00" fill="#000000">user_id</text>
<polygon fill="none" stroke="#000000" points="545.5,-668 545.5,-690 636.5,-690 636.5,-668 545.5,-668"/>
<text text-anchor="start" x="572.5" y="-676.2" font-family="Helvetica,sans-Serif" font-size="11.00" fill="#000000">date_time</text>
<polygon fill="none" stroke="#000000" points="545.5,-646 545.5,-668 636.5,-668 636.5,-646 545.5,-646"/>
<text text-anchor="start" x="572.5" y="-654.2" font-family="Helvetica,sans-Serif" font-size="11.00" fill="#000000">text</text>
<polygon fill="#ffffff" stroke="transparent" points="545.5,-628 545.5,-646 575.5,-646 575.5,-628 545.5,-628"/>
<polygon fill="none" stroke="#000000" points="545.5,-628 545.5,-646 575.5,-646 575.5,-628 545.5,-628"/>
<text text-anchor="start" x="548.5" y="-634.2" font-family="Helvetica,sans-Serif" font-size="11.00" fill="#000000">&lt; 2</text>
<polygon fill="#ffffff" stroke="transparent" points="575.5,-628 575.5,-646 618.5,-646 618.5,-628 575.5,-628"/>
<polygon fill="none" stroke="#000000" points="575.5,-628 575.5,-646 618.5,-646 618.5,-628 575.5,-628"/>
<text text-anchor="start" x="582.5" y="-634.2" font-family="Helvetica,sans-Serif" font-size="11.00" fill="#000000">0 rows</text>
<polygon fill="#ffffff" stroke="transparent" points="618.5,-628 618.5,-646 636.5,-646 636.5,-628 618.5,-628"/>
<polygon fill="none" stroke="#000000" points="618.5,-628 618.5,-646 636.5,-646 636.5,-628 618.5,-628"/>
<text text-anchor="start" x="626.5" y="-634.2" font-family="Helvetica,sans-Serif" font-size="11.00" fill="#000000"> &#160;</text>
</a>
</g>
</g>
<!-- message&#45;&gt;task -->
<g id="edge4" class="edge">
<title>message:w&#45;&gt;task:e</title>
<path fill="none" stroke="#000000" d="M532.2311,-716.8262C498.9614,-681.7386 513.4412,-509 468,-509"/>
<polygon fill="#000000" stroke="#000000" points="538.2467,-719.6251 543.9813,-726.264 541.8733,-721.3126 545.5,-723 545.5,-723 545.5,-723 541.8733,-721.3126 547.0187,-719.736 538.2467,-719.6251 538.2467,-719.6251"/>
<ellipse fill="none" stroke="#000000" cx="535.3454" cy="-718.2752" rx="3.2" ry="3.2"/>
</g>
<!-- message&#45;&gt;user -->
<g id="edge5" class="edge">
<title>message:w&#45;&gt;user:e</title>
<path fill="none" stroke="#000000" d="M530.9452,-701.1151C366.4701,-703.6876 269.3829,-747.2317 165,-615 112.8185,-548.8968 208.2172,-430 124,-430"/>
<polygon fill="#000000" stroke="#000000" points="537.5003,-701.0633 545.5285,-704.5999 541.5001,-701.0317 545.5,-701 545.5,-701 545.5,-701 541.5001,-701.0317 545.4715,-697.4001 537.5003,-701.0633 537.5003,-701.0633"/>
<ellipse fill="none" stroke="#000000" cx="534.3004" cy="-701.0887" rx="3.2" ry="3.2"/>
</g>
<!-- order -->
<g id="node4" class="node">
<title>order</title>
<g id="a_node4"><a xlink:href="../../tables/order.html" xlink:title="order" target="_top">
<polygon fill="#ffffff" stroke="transparent" points="191.5,-454 191.5,-604 284.5,-604 284.5,-454 191.5,-454"/>
<polygon fill="#f5f5f5" stroke="transparent" points="192,-582 192,-604 285,-604 285,-582 192,-582"/>
<polygon fill="none" stroke="#000000" points="192,-582 192,-604 285,-604 285,-582 192,-582"/>
<text text-anchor="start" x="197" y="-591.2" font-family="Helvetica,sans-Serif" font-weight="bold" font-size="11.00" fill="#000000">order</text>
<text text-anchor="start" x="250" y="-590.2" font-family="Helvetica,sans-Serif" font-size="11.00" fill="#000000">[table]</text>
<polygon fill="none" stroke="#000000" points="192,-560 192,-582 285,-582 285,-560 192,-560"/>
<image xlink:href="../../images/primaryKeys.png" width="11px" height="12px" preserveAspectRatio="xMinYMin meet" x="197" y="-577"/>
<text text-anchor="start" x="212" y="-568.2" font-family="Helvetica,sans-Serif" font-size="11.00" fill="#000000">id</text>
<polygon fill="none" stroke="#000000" points="192,-538 192,-560 285,-560 285,-538 192,-538"/>
<image xlink:href="../../images/foreignKeys.png" width="11px" height="12px" preserveAspectRatio="xMinYMin meet" x="197" y="-555"/>
<text text-anchor="start" x="212" y="-546.2" font-family="Helvetica,sans-Serif" font-size="11.00" fill="#000000">author_id</text>
<polygon fill="none" stroke="#000000" points="192,-516 192,-538 285,-538 285,-516 192,-516"/>
<text text-anchor="start" x="212" y="-524.2" font-family="Helvetica,sans-Serif" font-size="11.00" fill="#000000">title</text>
<polygon fill="none" stroke="#000000" points="192,-494 192,-516 285,-516 285,-494 192,-494"/>
<text text-anchor="start" x="212" y="-502.2" font-family="Helvetica,sans-Serif" font-size="11.00" fill="#000000">description</text>
<polygon fill="none" stroke="#000000" points="192,-472 192,-494 285,-494 285,-472 192,-472"/>
<text text-anchor="start" x="212" y="-480.2" font-family="Helvetica,sans-Serif" font-size="11.00" fill="#000000">author_price</text>
<polygon fill="#ffffff" stroke="transparent" points="192,-454 192,-472 219,-472 219,-454 192,-454"/>
<polygon fill="none" stroke="#000000" points="192,-454 192,-472 219,-472 219,-454 192,-454"/>
<text text-anchor="start" x="195" y="-460.2" font-family="Helvetica,sans-Serif" font-size="11.00" fill="#000000">&lt; 1</text>
<polygon fill="#ffffff" stroke="transparent" points="219,-454 219,-472 260,-472 260,-454 219,-454"/>
<polygon fill="none" stroke="#000000" points="219,-454 219,-472 260,-472 260,-454 219,-454"/>
<text text-anchor="start" x="224" y="-460.2" font-family="Helvetica,sans-Serif" font-size="11.00" fill="#000000">0 rows</text>
<polygon fill="#ffffff" stroke="transparent" points="260,-454 260,-472 285,-472 285,-454 260,-454"/>
<polygon fill="none" stroke="#000000" points="260,-454 260,-472 285,-472 285,-454 260,-454"/>
<text text-anchor="start" x="266" y="-460.2" font-family="Helvetica,sans-Serif" font-size="11.00" fill="#000000">2 &gt;</text>
</a>
</g>
</g>
<!-- order&#45;&gt;user -->
<g id="edge6" class="edge">
<title>order:w&#45;&gt;user:e</title>
<path fill="none" stroke="#000000" d="M177.7041,-546.0584C140.1697,-527.7334 179.2041,-430 124,-430"/>
<polygon fill="#000000" stroke="#000000" points="184.1642,-547.3876 191.2744,-552.5261 188.0821,-548.1938 192,-549 192,-549 192,-549 188.0821,-548.1938 192.7256,-545.4739 184.1642,-547.3876 184.1642,-547.3876"/>
<ellipse fill="none" stroke="#000000" cx="181.0298" cy="-546.7427" rx="3.2" ry="3.2"/>
</g>
<!-- order_history -->
<g id="node5" class="node">
<title>order_history</title>
<g id="a_node5"><a xlink:href="../../tables/order_history.html" xlink:title="order_history" target="_top">
<polygon fill="#ffffff" stroke="transparent" points="352,-563 352,-691 468,-691 468,-563 352,-563"/>
<polygon fill="#f5f5f5" stroke="transparent" points="352,-669 352,-691 468,-691 468,-669 352,-669"/>
<polygon fill="none" stroke="#000000" points="352,-669 352,-691 468,-691 468,-669 352,-669"/>
<text text-anchor="start" x="357" y="-678.2" font-family="Helvetica,sans-Serif" font-weight="bold" font-size="11.00" fill="#000000">order_history</text>
<text text-anchor="start" x="433" y="-677.2" font-family="Helvetica,sans-Serif" font-size="11.00" fill="#000000">[table]</text>
<polygon fill="none" stroke="#000000" points="352,-647 352,-669 468,-669 468,-647 352,-647"/>
<image xlink:href="../../images/primaryKeys.png" width="11px" height="12px" preserveAspectRatio="xMinYMin meet" x="357" y="-664"/>
<text text-anchor="start" x="381" y="-655.2" font-family="Helvetica,sans-Serif" font-size="11.00" fill="#000000">id</text>
<polygon fill="none" stroke="#000000" points="352,-625 352,-647 468,-647 468,-625 352,-625"/>
<image xlink:href="../../images/foreignKeys.png" width="11px" height="12px" preserveAspectRatio="xMinYMin meet" x="357" y="-642"/>
<text text-anchor="start" x="381" y="-633.2" font-family="Helvetica,sans-Serif" font-size="11.00" fill="#000000">order_id</text>
<polygon fill="none" stroke="#000000" points="352,-603 352,-625 468,-625 468,-603 352,-603"/>
<text text-anchor="start" x="381" y="-611.2" font-family="Helvetica,sans-Serif" font-size="11.00" fill="#000000">date_time</text>
<polygon fill="none" stroke="#000000" points="352,-581 352,-603 468,-603 468,-581 352,-581"/>
<text text-anchor="start" x="381" y="-589.2" font-family="Helvetica,sans-Serif" font-size="11.00" fill="#000000">status</text>
<polygon fill="#ffffff" stroke="transparent" points="352,-563 352,-581 395,-581 395,-563 352,-563"/>
<polygon fill="none" stroke="#000000" points="352,-563 352,-581 395,-581 395,-563 352,-563"/>
<text text-anchor="start" x="355" y="-569.2" font-family="Helvetica,sans-Serif" font-size="11.00" fill="#000000">&lt; 1</text>
<polygon fill="#ffffff" stroke="transparent" points="395,-563 395,-581 444,-581 444,-563 395,-563"/>
<polygon fill="none" stroke="#000000" points="395,-563 395,-581 444,-581 444,-563 395,-563"/>
<text text-anchor="start" x="408" y="-569.2" font-family="Helvetica,sans-Serif" font-size="11.00" fill="#000000">0 rows</text>
<polygon fill="#ffffff" stroke="transparent" points="444,-563 444,-581 468,-581 468,-563 444,-563"/>
<polygon fill="none" stroke="#000000" points="444,-563 444,-581 468,-581 468,-563 444,-563"/>
<text text-anchor="start" x="458" y="-569.2" font-family="Helvetica,sans-Serif" font-size="11.00" fill="#000000"> &#160;</text>
</a>
</g>
</g>
<!-- order_history&#45;&gt;order -->
<g id="edge7" class="edge">
<title>order_history:w&#45;&gt;order:e</title>
<path fill="none" stroke="#000000" d="M337.912,-632.6873C313.8061,-619.4415 320.8161,-571 285,-571"/>
<polygon fill="#000000" stroke="#000000" points="344.2124,-634.1687 351.1759,-639.5044 348.1062,-635.0844 352,-636 352,-636 352,-636 348.1062,-635.0844 352.8241,-632.4956 344.2124,-634.1687 344.2124,-634.1687"/>
<ellipse fill="none" stroke="#000000" cx="341.0974" cy="-633.4362" rx="3.2" ry="3.2"/>
</g>
<!-- profession -->
<g id="node6" class="node">
<title>profession</title>
<g id="a_node6"><a xlink:href="../../tables/profession.html" xlink:title="profession" target="_top">
<polygon fill="#ffffff" stroke="transparent" points="15.5,-37 15.5,-121 116.5,-121 116.5,-37 15.5,-37"/>
<polygon fill="#f5f5f5" stroke="transparent" points="16,-99 16,-121 117,-121 117,-99 16,-99"/>
<polygon fill="none" stroke="#000000" points="16,-99 16,-121 117,-121 117,-99 16,-99"/>
<text text-anchor="start" x="21" y="-108.2" font-family="Helvetica,sans-Serif" font-weight="bold" font-size="11.00" fill="#000000">profession</text>
<text text-anchor="start" x="82" y="-107.2" font-family="Helvetica,sans-Serif" font-size="11.00" fill="#000000">[table]</text>
<polygon fill="none" stroke="#000000" points="16,-77 16,-99 117,-99 117,-77 16,-77"/>
<image xlink:href="../../images/primaryKeys.png" width="11px" height="12px" preserveAspectRatio="xMinYMin meet" x="21" y="-94"/>
<text text-anchor="start" x="46" y="-85.2" font-family="Helvetica,sans-Serif" font-size="11.00" fill="#000000">id</text>
<polygon fill="none" stroke="#000000" points="16,-55 16,-77 117,-77 117,-55 16,-55"/>
<text text-anchor="start" x="46" y="-63.2" font-family="Helvetica,sans-Serif" font-size="11.00" fill="#000000">name</text>
<polygon fill="#ffffff" stroke="transparent" points="16,-37 16,-55 42,-55 42,-37 16,-37"/>
<polygon fill="none" stroke="#000000" points="16,-37 16,-55 42,-55 42,-37 16,-37"/>
<text text-anchor="start" x="19" y="-43.2" font-family="Helvetica,sans-Serif" font-size="11.00" fill="#000000"> &#160;</text>
<polygon fill="#ffffff" stroke="transparent" points="42,-37 42,-55 88,-55 88,-37 42,-37"/>
<polygon fill="none" stroke="#000000" points="42,-37 42,-55 88,-55 88,-37 42,-37"/>
<text text-anchor="start" x="52" y="-43.2" font-family="Helvetica,sans-Serif" font-size="11.00" fill="#000000">0 rows</text>
<polygon fill="#ffffff" stroke="transparent" points="88,-37 88,-55 117,-55 117,-37 88,-37"/>
<polygon fill="none" stroke="#000000" points="88,-37 88,-55 117,-55 117,-37 88,-37"/>
<text text-anchor="start" x="98" y="-43.2" font-family="Helvetica,sans-Serif" font-size="11.00" fill="#000000">1 &gt;</text>
</a>
</g>
</g>
<!-- task&#45;&gt;order -->
<g id="edge9" class="edge">
<title>task:w&#45;&gt;order:e</title>
<path fill="none" stroke="#000000" d="M338.628,-490.3969C310.6484,-506.112 327.2164,-571 285,-571"/>
<polygon fill="#000000" stroke="#000000" points="345.2145,-488.8402 353.8281,-490.5035 349.1073,-487.9201 353,-487 353,-487 353,-487 349.1073,-487.9201 352.1719,-483.4965 345.2145,-488.8402 345.2145,-488.8402"/>
<ellipse fill="none" stroke="#000000" cx="342.1003" cy="-489.5763" rx="3.2" ry="3.2"/>
</g>
<!-- task&#45;&gt;user -->
<g id="edge8" class="edge">
<title>task:w&#45;&gt;user:e</title>
<path fill="none" stroke="#000000" d="M338.9386,-461.7395C329.9487,-456.8953 325.3029,-447.9459 311,-444 230.6577,-421.8349 207.3437,-430 124,-430"/>
<polygon fill="#000000" stroke="#000000" points="345.2068,-463.1929 352.1868,-468.507 349.1034,-464.0964 353,-465 353,-465 353,-465 349.1034,-464.0964 353.8132,-461.493 345.2068,-463.1929 345.2068,-463.1929"/>
<ellipse fill="none" stroke="#000000" cx="342.0895" cy="-462.47" rx="3.2" ry="3.2"/>
</g>
<!-- task_history -->
<g id="node8" class="node">
<title>task_history</title>
<g id="a_node8"><a xlink:href="../../tables/task_history.html" xlink:title="task_history" target="_top">
<polygon fill="#ffffff" stroke="transparent" points="536,-463 536,-591 645,-591 645,-463 536,-463"/>
<polygon fill="#f5f5f5" stroke="transparent" points="536.5,-569 536.5,-591 645.5,-591 645.5,-569 536.5,-569"/>
<polygon fill="none" stroke="#000000" points="536.5,-569 536.5,-591 645.5,-591 645.5,-569 536.5,-569"/>
<text text-anchor="start" x="541.5" y="-578.2" font-family="Helvetica,sans-Serif" font-weight="bold" font-size="11.00" fill="#000000">task_history</text>
<text text-anchor="start" x="610.5" y="-577.2" font-family="Helvetica,sans-Serif" font-size="11.00" fill="#000000">[table]</text>
<polygon fill="none" stroke="#000000" points="536.5,-547 536.5,-569 645.5,-569 645.5,-547 536.5,-547"/>
<image xlink:href="../../images/primaryKeys.png" width="11px" height="12px" preserveAspectRatio="xMinYMin meet" x="541.5" y="-564"/>
<text text-anchor="start" x="565.5" y="-555.2" font-family="Helvetica,sans-Serif" font-size="11.00" fill="#000000">id</text>
<polygon fill="none" stroke="#000000" points="536.5,-525 536.5,-547 645.5,-547 645.5,-525 536.5,-525"/>
<image xlink:href="../../images/foreignKeys.png" width="11px" height="12px" preserveAspectRatio="xMinYMin meet" x="541.5" y="-542"/>
<text text-anchor="start" x="565.5" y="-533.2" font-family="Helvetica,sans-Serif" font-size="11.00" fill="#000000">task_id</text>
<polygon fill="none" stroke="#000000" points="536.5,-503 536.5,-525 645.5,-525 645.5,-503 536.5,-503"/>
<text text-anchor="start" x="565.5" y="-511.2" font-family="Helvetica,sans-Serif" font-size="11.00" fill="#000000">date_time</text>
<polygon fill="none" stroke="#000000" points="536.5,-481 536.5,-503 645.5,-503 645.5,-481 536.5,-481"/>
<text text-anchor="start" x="565.5" y="-489.2" font-family="Helvetica,sans-Serif" font-size="11.00" fill="#000000">status</text>
<polygon fill="#ffffff" stroke="transparent" points="536.5,-463 536.5,-481 575.5,-481 575.5,-463 536.5,-463"/>
<polygon fill="none" stroke="#000000" points="536.5,-463 536.5,-481 575.5,-481 575.5,-463 536.5,-463"/>
<text text-anchor="start" x="539.5" y="-469.2" font-family="Helvetica,sans-Serif" font-size="11.00" fill="#000000">&lt; 1</text>
<polygon fill="#ffffff" stroke="transparent" points="575.5,-463 575.5,-481 623.5,-481 623.5,-463 575.5,-463"/>
<polygon fill="none" stroke="#000000" points="575.5,-463 575.5,-481 623.5,-481 623.5,-463 575.5,-463"/>
<text text-anchor="start" x="587.5" y="-469.2" font-family="Helvetica,sans-Serif" font-size="11.00" fill="#000000">0 rows</text>
<polygon fill="#ffffff" stroke="transparent" points="623.5,-463 623.5,-481 645.5,-481 645.5,-463 623.5,-463"/>
<polygon fill="none" stroke="#000000" points="623.5,-463 623.5,-481 645.5,-481 645.5,-463 623.5,-463"/>
<text text-anchor="start" x="635.5" y="-469.2" font-family="Helvetica,sans-Serif" font-size="11.00" fill="#000000"> &#160;</text>
</a>
</g>
</g>
<!-- task_history&#45;&gt;task -->
<g id="edge10" class="edge">
<title>task_history:w&#45;&gt;task:e</title>
<path fill="none" stroke="#000000" d="M522.2404,-533.9706C501.9135,-527.6915 495.2274,-509 468,-509"/>
<polygon fill="#000000" stroke="#000000" points="528.5798,-534.8728 535.9927,-539.5641 532.5399,-535.4364 536.5,-536 536.5,-536 536.5,-536 532.5399,-535.4364 537.0073,-532.4359 528.5798,-534.8728 528.5798,-534.8728"/>
<ellipse fill="none" stroke="#000000" cx="525.4117" cy="-534.4219" rx="3.2" ry="3.2"/>
</g>
<!-- user_language -->
<g id="node10" class="node">
<title>user_language</title>
<g id="a_node10"><a xlink:href="../../tables/user_language.html" xlink:title="user_language" target="_top">
<polygon fill="#ffffff" stroke="transparent" points="177,-229 177,-313 299,-313 299,-229 177,-229"/>
<polygon fill="#f5f5f5" stroke="transparent" points="177,-291 177,-313 299,-313 299,-291 177,-291"/>
<polygon fill="none" stroke="#000000" points="177,-291 177,-313 299,-313 299,-291 177,-291"/>
<text text-anchor="start" x="182" y="-300.2" font-family="Helvetica,sans-Serif" font-weight="bold" font-size="11.00" fill="#000000">user_language</text>
<text text-anchor="start" x="264" y="-299.2" font-family="Helvetica,sans-Serif" font-size="11.00" fill="#000000">[table]</text>
<polygon fill="none" stroke="#000000" points="177,-269 177,-291 299,-291 299,-269 177,-269"/>
<image xlink:href="../../images/primaryKeys.png" width="11px" height="12px" preserveAspectRatio="xMinYMin meet" x="182" y="-286"/>
<text text-anchor="start" x="206" y="-277.2" font-family="Helvetica,sans-Serif" font-size="11.00" fill="#000000">user_id</text>
<polygon fill="none" stroke="#000000" points="177,-247 177,-269 299,-269 299,-247 177,-247"/>
<image xlink:href="../../images/primaryKeys.png" width="11px" height="12px" preserveAspectRatio="xMinYMin meet" x="182" y="-264"/>
<text text-anchor="start" x="206" y="-255.2" font-family="Helvetica,sans-Serif" font-size="11.00" fill="#000000">language_id</text>
<polygon fill="#ffffff" stroke="transparent" points="177,-229 177,-247 223,-247 223,-229 177,-229"/>
<polygon fill="none" stroke="#000000" points="177,-229 177,-247 223,-247 223,-229 177,-229"/>
<text text-anchor="start" x="180" y="-235.2" font-family="Helvetica,sans-Serif" font-size="11.00" fill="#000000">&lt; 2</text>
<polygon fill="#ffffff" stroke="transparent" points="223,-229 223,-247 274,-247 274,-229 223,-229"/>
<polygon fill="none" stroke="#000000" points="223,-229 223,-247 274,-247 274,-229 223,-229"/>
<text text-anchor="start" x="238" y="-235.2" font-family="Helvetica,sans-Serif" font-size="11.00" fill="#000000">0 rows</text>
<polygon fill="#ffffff" stroke="transparent" points="274,-229 274,-247 299,-247 299,-229 274,-229"/>
<polygon fill="none" stroke="#000000" points="274,-229 274,-247 299,-247 299,-229 274,-229"/>
<text text-anchor="start" x="289" y="-235.2" font-family="Helvetica,sans-Serif" font-size="11.00" fill="#000000"> &#160;</text>
</a>
</g>
</g>
<!-- user_language&#45;&gt;language -->
<g id="edge11" class="edge">
<title>user_language:w&#45;&gt;language:e</title>
<path fill="none" stroke="#000000" d="M162.9946,-254.5053C140.1233,-241.0042 147.8408,-193 113,-193"/>
<polygon fill="#000000" stroke="#000000" points="169.238,-256.0632 176.1284,-261.4929 173.119,-257.0316 177,-258 177,-258 177,-258 173.119,-257.0316 177.8716,-254.5071 169.238,-256.0632 169.238,-256.0632"/>
<ellipse fill="none" stroke="#000000" cx="166.1332" cy="-255.2884" rx="3.2" ry="3.2"/>
</g>
<!-- user_language&#45;&gt;user -->
<g id="edge12" class="edge">
<title>user_language:w&#45;&gt;user:e</title>
<path fill="none" stroke="#000000" d="M162.6362,-282.8625C119.7285,-303.6 188.9057,-430 124,-430"/>
<polygon fill="#000000" stroke="#000000" points="169.1543,-281.5636 177.7036,-283.5306 173.0771,-280.7818 177,-280 177,-280 177,-280 173.0771,-280.7818 176.2964,-276.4694 169.1543,-281.5636 169.1543,-281.5636"/>
<ellipse fill="none" stroke="#000000" cx="166.016" cy="-282.189" rx="3.2" ry="3.2"/>
</g>
<!-- user_profession -->
<g id="node11" class="node">
<title>user_profession</title>
<g id="a_node11"><a xlink:href="../../tables/user_profession.html" xlink:title="user_profession" target="_top">
<polygon fill="#ffffff" stroke="transparent" points="173,-72 173,-156 303,-156 303,-72 173,-72"/>
<polygon fill="#f5f5f5" stroke="transparent" points="173,-134 173,-156 303,-156 303,-134 173,-134"/>
<polygon fill="none" stroke="#000000" points="173,-134 173,-156 303,-156 303,-134 173,-134"/>
<text text-anchor="start" x="178" y="-143.2" font-family="Helvetica,sans-Serif" font-weight="bold" font-size="11.00" fill="#000000">user_profession</text>
<text text-anchor="start" x="268" y="-142.2" font-family="Helvetica,sans-Serif" font-size="11.00" fill="#000000">[table]</text>
<polygon fill="none" stroke="#000000" points="173,-112 173,-134 303,-134 303,-112 173,-112"/>
<image xlink:href="../../images/primaryKeys.png" width="11px" height="12px" preserveAspectRatio="xMinYMin meet" x="178" y="-129"/>
<text text-anchor="start" x="201" y="-120.2" font-family="Helvetica,sans-Serif" font-size="11.00" fill="#000000">user_id</text>
<polygon fill="none" stroke="#000000" points="173,-90 173,-112 303,-112 303,-90 173,-90"/>
<image xlink:href="../../images/primaryKeys.png" width="11px" height="12px" preserveAspectRatio="xMinYMin meet" x="178" y="-107"/>
<text text-anchor="start" x="201" y="-98.2" font-family="Helvetica,sans-Serif" font-size="11.00" fill="#000000">profession_id</text>
<polygon fill="#ffffff" stroke="transparent" points="173,-72 173,-90 223,-90 223,-72 173,-72"/>
<polygon fill="none" stroke="#000000" points="173,-72 173,-90 223,-90 223,-72 173,-72"/>
<text text-anchor="start" x="176" y="-78.2" font-family="Helvetica,sans-Serif" font-size="11.00" fill="#000000">&lt; 2</text>
<polygon fill="#ffffff" stroke="transparent" points="223,-72 223,-90 276,-90 276,-72 223,-72"/>
<polygon fill="none" stroke="#000000" points="223,-72 223,-90 276,-90 276,-72 223,-72"/>
<text text-anchor="start" x="240" y="-78.2" font-family="Helvetica,sans-Serif" font-size="11.00" fill="#000000">0 rows</text>
<polygon fill="#ffffff" stroke="transparent" points="276,-72 276,-90 303,-90 303,-72 276,-72"/>
<polygon fill="none" stroke="#000000" points="276,-72 276,-90 303,-90 303,-72 276,-72"/>
<text text-anchor="start" x="293" y="-78.2" font-family="Helvetica,sans-Serif" font-size="11.00" fill="#000000"> &#160;</text>
</a>
</g>
</g>
<!-- user_profession&#45;&gt;profession -->
<g id="edge13" class="edge">
<title>user_profession:w&#45;&gt;profession:e</title>
<path fill="none" stroke="#000000" d="M158.3334,-99.3005C144.1695,-95.7767 136.7619,-88 117,-88"/>
<polygon fill="#000000" stroke="#000000" points="165.0532,-100.0791 172.5856,-104.5761 169.0266,-100.5395 173,-101 173,-101 173,-101 169.0266,-100.5395 173.4144,-97.4239 165.0532,-100.0791 165.0532,-100.0791"/>
<ellipse fill="none" stroke="#000000" cx="161.8744" cy="-99.7107" rx="3.2" ry="3.2"/>
</g>
<!-- user_profession&#45;&gt;user -->
<g id="edge14" class="edge">
<title>user_profession:w&#45;&gt;user:e</title>
<path fill="none" stroke="#000000" d="M159.5549,-128.3286C116.8814,-169.095 187.6884,-430 124,-430"/>
<polygon fill="#000000" stroke="#000000" points="165.5628,-125.9475 174.3264,-126.3467 169.2814,-124.4738 173,-123 173,-123 173,-123 169.2814,-124.4738 171.6736,-119.6533 165.5628,-125.9475 165.5628,-125.9475"/>
<ellipse fill="none" stroke="#000000" cx="162.5879" cy="-127.1266" rx="3.2" ry="3.2"/>
</g>
</g>
</svg>
